<svg width="297" height="105" viewBox="0 0 297 105" fill="none" xmlns="http://www.w3.org/2000/svg">
<path d="M37.0694 16.5814L62.2828 5.24596C65.8847 3.65688 70.1223 5.24596 71.7114 8.84787L97.2426 65.419C98.8317 69.021 97.2426 73.2585 93.6407 74.8476L37.0694 100.379C33.4675 101.968 29.2299 100.379 27.6409 96.7769L2.10963 40.2057C0.520554 36.6038 2.10963 32.3662 5.71155 30.7771L11.0085 28.4465L11.4322 28.2346L11.5382 28.2699L11.6441 28.1287" stroke="white" stroke-width="2.78089"/>
<path fill-rule="evenodd" clip-rule="evenodd" d="M0.202771 36.3919C0.0968327 37.8751 0.30871 39.3582 0.944342 40.7354L26.3696 97.3066C27.1112 99.0016 28.3825 100.379 29.9715 101.226C31.3487 78.0258 49.3583 64.3597 74.042 64.3597C76.9024 64.3597 81.2459 64.5716 86.8606 65.4191C88.3438 65.631 89.9328 65.4191 91.2041 64.5716C93.2169 63.0885 95.0179 61.6053 96.501 60.0162C99.4673 56.8381 101.904 53.1302 103.175 47.1977C103.175 47.1977 105.93 46.668 104.976 38.5107C104.87 37.3454 104.129 36.286 103.175 36.1801C102.751 36.0741 102.328 36.0741 102.01 36.0741C101.48 36.0741 100.95 36.0741 100.527 36.1801C92.8991 34.9088 85.8012 31.6247 82.729 28.1287C82.6231 28.0228 82.5171 27.8109 82.3052 27.705C81.9874 27.2812 81.6696 26.9634 81.2459 26.5397C81.034 26.3278 80.8221 26.1159 80.5043 25.904C74.2539 21.1368 66.6263 18.2765 58.3631 18.2765C46.498 18.2765 42.3664 18.2765 40.1417 16.0517C39.612 15.4161 38.9763 14.8864 38.3407 14.3567C35.4804 12.132 31.8784 10.7548 28.0646 10.7548C19.2717 10.7548 11.962 17.6408 11.0085 26.6456C10.9026 27.3872 10.9026 28.0228 10.9026 28.7644C10.9026 30.3534 11.2204 32.0485 11.7501 33.8494L0.202771 36.3919ZM13.6923 33.5669C21.3199 32.4016 30.1834 31.8366 41.6248 31.6247C38.1288 29.4 36.9635 25.4803 35.9041 21.6665C34.7502 17.628 33.5964 14.5786 29.7491 13.0992C28.9283 12.7836 28.0406 12.6713 27.1622 12.7134C18.3476 13.1352 13.3745 19.8416 13.3745 30.1416C13.3745 31.3069 13.4804 32.2957 13.6923 33.5669ZM103.422 39.2876C104.058 45.3261 102.045 45.8911 102.045 45.8911C101.304 45.8911 99.0082 43.1367 96.3598 40.7001C96.042 40.4882 96.1832 39.9585 96.501 39.7467L98.3373 38.4401C99.3354 37.8246 99.8204 37.4866 101.198 37.4866C101.41 37.4866 101.727 37.4866 102.045 37.5926C102.681 37.6985 103.316 38.3342 103.422 39.2876ZM75.2074 36.7098C76.9024 36.6038 78.1736 35.4385 78.1736 33.9554C78.2796 32.2603 76.6905 30.9891 74.7836 31.095C73.1945 31.201 73.0886 31.201 68.1095 32.3663C67.7916 32.4722 67.6857 32.79 68.0035 33.0019C73.4064 36.8157 73.5123 36.8157 75.2074 36.7098Z" fill="white"/>
<path d="M148.388 56.0534H136.087V69.2929C136.087 69.5206 135.997 69.7391 135.836 69.9002C135.675 70.0613 135.456 70.1517 135.229 70.1517H129.858C129.631 70.1517 129.412 70.0613 129.251 69.9002C129.09 69.7391 129 69.5206 129 69.2929V35.7752C129.005 35.5511 129.098 35.338 129.259 35.1814C129.419 35.0248 129.634 34.9372 129.858 34.9373H152.062C152.29 34.9373 152.508 35.0278 152.669 35.1888C152.83 35.3499 152.92 35.5684 152.92 35.7962V40.6248C152.92 40.8526 152.83 41.0711 152.669 41.2321C152.508 41.3932 152.29 41.4837 152.062 41.4837H136.087V49.5279H148.388C148.615 49.5279 148.834 49.6184 148.994 49.7795C149.155 49.9406 149.246 50.159 149.246 50.3868V55.2154C149.24 55.4396 149.148 55.6527 148.987 55.8093C148.827 55.9658 148.612 56.0535 148.388 56.0534V56.0534Z" fill="white"/>
<path d="M176.427 34.327C178.785 34.2924 181.129 34.701 183.336 35.5316C185.193 36.2094 186.894 37.253 188.34 38.6005C189.611 39.866 190.671 41.3263 191.481 42.9264C192.289 44.4482 192.888 46.0725 193.261 47.7551C193.593 49.3077 193.761 50.8911 193.763 52.4789C193.762 54.0911 193.594 55.6988 193.261 57.2762C192.891 58.9662 192.292 60.5978 191.481 62.1257C190.671 63.726 189.611 65.1864 188.34 66.4516C186.897 67.7951 185.194 68.8289 183.336 69.4892C181.125 70.3036 178.783 70.7048 176.427 70.6727C174.054 70.7079 171.694 70.3067 169.466 69.4892C167.608 68.8291 165.905 67.7954 164.462 66.4516C163.171 65.1867 162.087 63.727 161.248 62.1257C160.42 60.6023 159.81 58.9697 159.437 57.2762C159.104 55.6989 158.935 54.0911 158.935 52.4789C158.936 50.891 159.104 49.3077 159.437 47.7551C159.813 46.069 160.423 44.4437 161.248 42.9264C162.09 41.3246 163.178 39.8649 164.472 38.6005C165.918 37.2527 167.62 36.2091 169.476 35.5316C171.698 34.6997 174.055 34.2911 176.427 34.327V34.327ZM176.427 64.0949C177.951 64.1165 179.459 63.7867 180.834 63.1313C181.983 62.6052 182.996 61.8243 183.797 60.8479C184.524 59.9142 185.107 58.876 185.524 57.7685C185.908 56.8005 186.196 55.7971 186.383 54.7728C186.51 54.0076 186.576 53.2336 186.582 52.458C186.576 51.6824 186.51 50.9084 186.383 50.1432C186.197 49.1288 185.909 48.1357 185.524 47.179C185.113 46.093 184.545 45.0732 183.839 44.1519C183.029 43.1725 181.999 42.3974 180.834 41.8895C179.45 41.2705 177.944 40.9699 176.427 41.0096C174.869 40.9797 173.324 41.2982 171.905 41.9418C170.752 42.4359 169.73 43.1927 168.921 44.1519C168.216 45.0832 167.645 46.1093 167.226 47.1999C166.825 48.1512 166.537 49.146 166.367 50.1641C166.132 51.6984 166.132 53.2595 166.367 54.7938C166.539 55.8148 166.827 56.8128 167.226 57.7685C167.645 58.8679 168.219 59.9014 168.932 60.8374C169.741 61.8193 170.765 62.6007 171.926 63.1208C173.336 63.77 174.875 64.0888 176.427 64.053V64.0949Z" fill="white"/>
<path d="M207.6 44.2782C207.614 44.815 207.777 45.3373 208.071 45.7865C208.484 46.3179 209.019 46.7419 209.631 47.0225C210.363 47.4066 210.985 47.6998 211.494 47.9023C212.003 48.1048 212.858 48.4051 214.059 48.8031L216.519 49.662C216.986 49.8296 217.765 50.1403 218.853 50.5942C219.692 50.9201 220.498 51.3234 221.261 51.7988C221.777 52.1479 222.423 52.6332 223.198 53.2547C223.875 53.7693 224.447 54.4094 224.883 55.1401C225.303 55.8766 225.633 56.6607 225.867 57.4758C226.121 58.435 226.213 59.4297 226.139 60.4191C226.07 61.8317 225.692 63.212 225.032 64.4625C224.372 65.7131 223.446 66.8035 222.318 67.6568C219.741 69.6373 216.552 70.6527 213.305 70.5268C208.826 70.529 204.413 69.4511 200.439 67.3845C200.341 67.3345 200.254 67.2636 200.185 67.1768C200.117 67.09 200.068 66.9893 200.042 66.8817C199.959 66.6732 199.959 66.4409 200.042 66.2323L202.355 61.8541C202.402 61.7509 202.468 61.6581 202.551 61.5808C202.634 61.5035 202.731 61.4433 202.837 61.4037C202.939 61.3587 203.049 61.3354 203.161 61.3354C203.273 61.3354 203.383 61.3587 203.486 61.4037C206.408 62.9116 209.622 63.7691 212.907 63.9175C214.253 63.9681 215.588 63.6532 216.77 63.0062C217.23 62.7619 217.628 62.4161 217.934 61.9951C218.241 61.5741 218.448 61.0889 218.539 60.5762C218.65 60.0292 218.594 59.4615 218.38 58.9463C218.165 58.4311 217.801 57.992 217.335 57.6853C215.987 56.7774 214.498 56.0979 212.928 55.6742C210.444 55.0003 208.024 54.1101 205.695 53.0138C202.205 51.1354 200.46 48.3423 200.46 44.6344C200.393 43.2308 200.64 41.8299 201.183 40.5341C201.727 39.2383 202.553 38.0805 203.601 37.1453C205.909 35.233 208.846 34.2474 211.839 34.3801C216.025 34.4793 220.143 35.4533 223.93 37.2395C224.041 37.278 224.142 37.3411 224.225 37.4241C224.308 37.5071 224.371 37.6079 224.409 37.7189C224.448 37.8299 224.46 37.9481 224.446 38.0646C224.432 38.1812 224.392 38.293 224.328 38.3917L222.465 42.77C222.426 42.8812 222.364 42.9832 222.284 43.0696C222.204 43.156 222.107 43.2249 221.998 43.2721C221.89 43.3192 221.774 43.3436 221.656 43.3437C221.538 43.3439 221.422 43.3197 221.313 43.2727C218.501 41.966 215.469 41.1986 212.373 41.0103C209.296 41.0103 207.704 42.0996 207.6 44.2782Z" fill="white"/>
<path d="M239.865 44.2784C239.888 44.8183 240.062 45.3408 240.367 45.7867C240.78 46.3181 241.315 46.7421 241.927 47.0227C242.66 47.4067 243.281 47.7 243.79 47.9025C244.3 48.105 245.155 48.4053 246.355 48.8033L248.815 49.6622C249.283 49.8298 250.061 50.1405 251.15 50.5944C251.988 50.9198 252.794 51.3231 253.557 51.7989C254.074 52.1481 254.719 52.6334 255.494 53.2549C256.171 53.7693 256.744 54.4094 257.179 55.1402C257.57 55.8808 257.872 56.6648 258.08 57.476C258.334 58.4351 258.426 59.4298 258.352 60.4193C258.283 61.8319 257.905 63.2121 257.245 64.4627C256.584 65.7132 255.658 66.8036 254.531 67.657C251.959 69.6328 248.779 70.6479 245.538 70.5269C241.06 70.5291 236.647 69.4513 232.673 67.3846C232.574 67.3347 232.487 67.2638 232.419 67.177C232.35 67.0902 232.301 66.9895 232.275 66.8819C232.192 66.6733 232.192 66.441 232.275 66.2325L234.588 61.8542C234.64 61.753 234.711 61.6629 234.797 61.5892C234.883 61.5155 234.983 61.4596 235.091 61.4248C235.193 61.3798 235.304 61.3565 235.415 61.3565C235.527 61.3565 235.638 61.3798 235.74 61.4248C238.663 62.9327 241.877 63.7903 245.162 63.9386C246.5 63.9886 247.827 63.6775 249.003 63.0378C249.469 62.7915 249.871 62.4414 250.18 62.0146C250.489 61.5878 250.695 61.0957 250.783 60.5764C250.892 60.0294 250.836 59.4622 250.622 58.9473C250.407 58.4324 250.044 57.9931 249.579 57.6855C248.237 56.7799 246.755 56.1006 245.193 55.6744C242.709 55.0004 240.288 54.1102 237.959 53.014C234.47 51.1356 232.725 48.3424 232.725 44.6345C232.658 43.231 232.905 41.83 233.448 40.5342C233.991 39.2385 234.817 38.0806 235.866 37.1454C238.173 35.2323 241.11 34.2466 244.104 34.3802C248.3 34.4748 252.43 35.4489 256.227 37.2397C256.338 37.2781 256.438 37.3412 256.521 37.4243C256.604 37.5073 256.667 37.6081 256.705 37.7191C256.744 37.83 256.756 37.9482 256.742 38.0648C256.728 38.1813 256.688 38.2932 256.624 38.3919L254.761 42.7701C254.722 42.8814 254.66 42.9834 254.58 43.0697C254.5 43.1561 254.403 43.2251 254.295 43.2722C254.187 43.3194 254.07 43.3438 253.952 43.3439C253.834 43.344 253.718 43.3198 253.61 43.2729C250.787 41.9623 247.744 41.1948 244.638 41.0104C241.553 41.0104 239.962 42.0998 239.865 44.2784Z" fill="white"/>
<path d="M280.618 34.949L296.091 69.3046C296.132 69.393 296.154 69.4896 296.154 69.5874C296.154 69.6852 296.132 69.7818 296.091 69.8702C296.05 69.9571 295.984 70.0303 295.903 70.0805C295.821 70.1308 295.726 70.156 295.63 70.153H289.349C289.088 70.1799 288.827 70.1137 288.61 69.9661C288.394 69.8185 288.236 69.599 288.166 69.3465L285.13 61.9097H274.128L271.123 69.3046C271.042 69.5527 270.881 69.7667 270.665 69.9128C270.449 70.0588 270.19 70.1286 269.93 70.1111H263.555C263.459 70.1141 263.364 70.0889 263.282 70.0386C263.2 69.9884 263.135 69.9153 263.094 69.8283C263.044 69.7417 263.014 69.6454 263.005 69.546C262.996 69.4465 263.008 69.3463 263.042 69.2522L278.42 34.9385C278.55 34.7899 278.711 34.6723 278.892 34.5944C279.073 34.5164 279.27 34.4801 279.467 34.4881C279.682 34.4607 279.901 34.4887 280.102 34.5693C280.304 34.6499 280.481 34.7806 280.618 34.949V34.949ZM279.571 48.3665L276.431 56.2641H282.712L279.571 48.3665Z" fill="white"/>
</svg>
